<?xml version="1.0" encoding="UTF-8" standalone="no"?>
<!DOCTYPE svg PUBLIC "-//W3C//DTD SVG 1.1//EN" "http://www.w3.org/Graphics/SVG/1.1/DTD/svg11.dtd">
<svg width="100%" height="100%" viewBox="0 0 16 16" version="1.1" xmlns="http://www.w3.org/2000/svg" xmlns:xlink="http://www.w3.org/1999/xlink" xml:space="preserve" xmlns:serif="http://www.serif.com/" style="fill-rule:evenodd;clip-rule:evenodd;stroke-linejoin:round;stroke-miterlimit:2;">
    <path d="M8,16C12.418,16 16,12.418 16,8C16,3.582 12.418,0 8,0C3.582,0 0,3.582 0,8C0,12.418 3.582,16 8,16Z" style="fill:rgb(46,193,142);fill-rule:nonzero;"/>
    <path d="M10.495,5.314C10.093,4.402 9.169,4.207 8.038,4.396L7.675,2.987L6.818,3.208L7.175,4.613C6.95,4.67 6.718,4.719 6.489,4.784L6.132,3.387L5.275,3.608L5.638,5.017C5.453,5.07 3.908,5.466 3.908,5.466L4.144,6.384C4.144,6.384 4.773,6.207 4.767,6.221C5.116,6.13 5.281,6.305 5.358,6.469L6.357,10.331C6.369,10.443 6.349,10.634 6.109,10.698C6.123,10.707 5.486,10.859 5.486,10.859L5.579,11.929C5.579,11.929 7.11,11.537 7.311,11.486L7.679,12.912L8.536,12.69L8.168,11.255C8.404,11.2 8.633,11.143 8.856,11.084L9.222,12.512L10.079,12.29L9.711,10.867C11.031,10.546 11.963,9.714 11.772,8.441C11.65,7.673 10.812,7.044 10.115,6.973C10.544,6.593 10.761,6.039 10.495,5.314ZM10.083,8.674C10.253,9.935 8.501,10.089 7.922,10.242L7.419,8.355C8,8.203 9.795,7.563 10.083,8.674ZM9.027,6.106C9.208,7.226 7.709,7.356 7.226,7.48L6.767,5.769C7.252,5.649 8.659,5.068 9.027,6.106Z" style="fill:white;fill-rule:nonzero;"/>
</svg>
